<?xml version="1.0" encoding="utf-8"?>
<!-- Generator: Adobe Illustrator 23.0.1, SVG Export Plug-In . SVG Version: 6.00 Build 0)  -->
<svg version="1.1" id="Layer_1" xmlns="http://www.w3.org/2000/svg" xmlns:xlink="http://www.w3.org/1999/xlink" x="0px" y="0px"
	 viewBox="0 0 180 59.7" style="enable-background:new 0 0 180 59.7;" xml:space="preserve">
<style type="text/css">
	.st0{fill:#05172A;}
	.st1{fill-rule:evenodd;clip-rule:evenodd;fill:#9F5A08;}
	.st2{fill-rule:evenodd;clip-rule:evenodd;fill:#F4E1CA;}
	.st3{fill-rule:evenodd;clip-rule:evenodd;fill:#F2A84F;}
	.st4{clip-path:url(#SVGID_2_);fill-rule:evenodd;clip-rule:evenodd;fill:#CE8630;}
	.st5{fill-rule:evenodd;clip-rule:evenodd;fill:#F7941D;}
	.st6{clip-path:url(#SVGID_4_);fill-rule:evenodd;clip-rule:evenodd;fill:#111111;}
	.st7{fill-rule:evenodd;clip-rule:evenodd;fill:#B4E2F5;}
	.st8{fill-rule:evenodd;clip-rule:evenodd;fill:#66B5D4;}
</style>
<g>
	<g>
		<path class="st0" d="M15.5,55.5c-0.6,0.4-1.3,0.7-2,0.7c-0.9,0-1.7-0.3-2.4-0.8c-0.1-0.7-0.2-1.1-0.2-1.5c0-0.5,0.1-1.3,0.2-2.4
			l-0.2-1.8L10.4,40l-0.5,0.3c-1.5,0.9-2.6,2-3.3,3.3c-0.7,1.3-1.2,3-1.5,5.1c-0.2,1.5-0.3,3.3-0.3,5.4c0,1.5-1,2.2-2.9,2.2
			c-0.8,0-1.3-0.3-1.5-0.9C0.1,54.8,0,54.2,0,53.5c0-0.3,0-1,0-2.2c0-1.2,0.1-2.3,0.4-3.4c0.1-0.3,0.2-1,0.4-2
			c0.2-1.1,0.6-2.1,1-2.9c0.4-0.9,1-1.7,1.8-2.4c1.8-1.6,4-2.9,6.6-3.8C9.6,26.6,9.3,20.3,9.3,17.8c-0.1-1.5-0.4-2.7-1.1-3.6
			c-0.7-1-2.1-1.5-4.2-1.7c-1.7-0.1-2.5-0.7-2.3-1.7C1.8,10.3,2,9.9,2.4,9.5c0.4-0.4,0.8-0.6,1.3-0.5c6.7,0.3,10.3,4.4,10.6,12.3
			l0.5,14.3c0.4,9.7,0.6,14.8,0.6,15.3c0.2,0.7,0.3,1.2,0.4,1.5c0.2,0.4,0.3,1,0.4,1.6C16.3,54.6,16.1,55.1,15.5,55.5z"/>
		<path class="st0" d="M32.6,13.7V14c0,4.7,0.5,11.4,1.4,20c1,9.1,1.5,15.8,1.5,20c0,0.6-0.3,1.1-0.9,1.5c-0.6,0.4-1.3,0.6-2.1,0.6
			l-1.7-0.9c0-1,0-1.9-0.1-2.7l-0.1-2.7l0.2-2.4c-0.2-0.6-0.7-5.6-1.4-15.2c-0.7-9.6-1.1-15.9-1.2-18.9l-1.9-0.1
			c-4,0-6.6-0.3-7.7-0.8c-0.6-0.3-0.9-0.7-0.9-1.3c0-0.4,0.3-0.7,0.9-1c0.6-0.3,1.2-0.5,1.8-0.5c1.6,0,3.6,0.1,6,0.3
			c2.3,0.2,4.3,0.4,6,0.4h0.7h0.7c1.8,0,2.7,0.6,2.7,1.7c0,0.6-0.3,1-0.9,1.4c-0.6,0.4-1.3,0.5-2,0.5C33.3,13.8,32.9,13.8,32.6,13.7
			z"/>
		<path class="st0" d="M48.9,55.7c-0.6-0.4-0.8-0.8-0.8-1.4c0-2.9-0.1-6.1-0.3-9.6c-0.1-2.3-0.2-4.5-0.2-6.6v-2.9l-0.1-0.9
			c-0.1-0.2-0.1-0.5-0.1-0.8c0-0.3,0-0.4,0.1-0.5v-0.3c-0.2-3.7-0.4-9.3-0.4-16.7v-1.8c0-0.5-0.6-0.8-1.8-0.8
			c-2.5,0-4.2-0.3-5.3-0.9c-0.6-0.3-1-0.7-1-1.2c0-0.4,0.3-0.8,0.9-1.1c0.6-0.3,1.2-0.4,1.9-0.4c0.5,0,2,0.1,4.3,0.3
			c0.3,0,0.5,0,0.6,0.1c1.8,0,3,0.6,3.7,1.8c0.6,1.1,1,2.1,1,2.8c0,4.1,0.3,11.6,0.8,22.4c0.4,6,0.5,11.9,0.5,17.8
			c0,0.4-0.2,0.8-0.6,1c-0.4,0.3-0.9,0.4-1.5,0.4C50,56.3,49.4,56.1,48.9,55.7z"/>
		<path class="st0" d="M76.7,54.2c0,0.9-0.4,1.5-1.2,1.8c-0.8,0.3-2.4,0.5-4.7,0.8c-0.4,0-1.6,0.1-3.6,0.1c-0.7,0-1.2-0.2-1.5-0.7
			c-0.3-0.4-0.5-1-0.5-1.7c0-0.3,0.2-0.6,0.5-0.7c0.3-0.2,0.9-0.3,1.6-0.4c0.2,0,1.6-0.3,4-0.7l0.4-18.7l-0.2-3.5v-1.9
			c0.1-1.3,0.1-3.2,0-5.5c-0.1-2.4-0.1-4.3-0.3-5.7c-0.1-1.5-0.3-2.6-0.6-3.3c-0.3-0.7-0.8-1-1.5-1.1l-0.9,3.4
			c-0.9,4.3-2.3,11.6-4.1,22.1c-0.5,2.7-1,5.4-1.4,8.2c-0.5,3.5-1.1,6.6-1.8,9.4c-0.1,0.4-0.4,0.7-0.9,0.9c-0.5,0.2-1,0.3-1.6,0.2
			c-0.7-0.1-1.3-0.4-1.7-0.8c-0.4-0.4-0.6-0.9-0.5-1.4l0.7-3.7c0.3-2.1,0.7-4.1,1.1-5.8l0.8-3c0.5-1.6,1-3.8,1.7-6.5l0.1-0.8
			l0.2-0.8l0.2-0.5l0.1-0.4c0.9-6.1,1.9-11.6,3-16.5l0.5-1.7c0.2-0.5,0.3-0.9,0.4-1.3c0.1-0.4,0.1-0.7,0.2-1c-0.7,0-1.8,0-3.3,0.1
			c-0.6,0-1.5,0.1-2.5,0.1c-0.1-0.1-0.2-0.4-0.5-0.7c-0.3-0.3-0.4-0.7-0.4-1.2c0-1.2,1.3-1.8,4-1.8c1.6,0,3.4,0,5.3,0.1
			c1.9,0.1,3.3,0.2,4.3,0.3c0.9,0.1,1.7,0.4,2.4,0.9c0.7,0.4,1,1,1,1.7v2.5c0,2.6,0,4.7,0.1,6.3v1.7c0.2,4.8,0.3,9.8,0.3,15.1
			c0.1,6,0.3,11.3,0.7,15.9V54.2z"/>
		<path class="st0" d="M88.8,41.2c0,0,0-1.5,0-4.4c0-0.5,0.1-1,0.3-1.5c0.2-1.1,0.4-2.1,0.4-3v-4.5c0-0.5-0.1-1.9-0.2-4.2L89,20
			v-0.1v-0.7c0-0.6,0-1-0.1-1.2c-0.1-2-0.2-3.3-0.3-3.9c-0.1-0.6-0.7-0.9-1.6-0.9l-2.2,0.1c-0.4,0-0.9,0.1-1.5,0.1
			c-1.9,0-2.9-0.6-3-1.8c0-1,0.7-1.7,2.2-2.2c1.1,0,2.2,0.2,3.4,0.4l2.3,0.4c0.5-0.4,1.4-0.6,2.6-0.6c0.7,0,1.3,0.2,1.8,0.7
			c0.5,0.5,0.7,1,0.7,1.6c0.1,2.6,0.2,5.1,0.2,7.4l0.2,4.5c0,1.2,0,2.2-0.1,3c-0.1,1.1-0.1,2.4-0.1,3.7c0,0.9,0.2,2.6,0.5,5l0.2,1.4
			c0.2,0.4,0.4,0.9,0.4,1.3c0,0.8-0.3,1.5-0.9,2.1c-0.6,0.6-1.3,0.9-2.1,0.9C89.7,41.2,88.8,41.2,88.8,41.2z"/>
		<path class="st0" d="M107.2,56.8c-1.9,0-3.4-0.4-4.5-1.3c-1.1-0.9-1.6-2.2-1.6-3.9c0-1.7,0.6-4.4,1.7-8c1.1-3.6,2.2-6.6,3.2-8.9
			c0.6-1.7,1.7-4.1,3.3-7.2l1.1-2.5c0.4-1,0.7-2.3,1-4c0.2-1.7,0.4-3.4,0.4-5.2c0-1.3,0-2.3-0.1-2.8c-1.1-0.1-1.9-0.2-2.5-0.3
			c-0.6,0-1.8-0.1-3.6-0.1c-3.4-0.1-5.6-0.4-6.6-0.8c-0.6-0.3-1-0.7-1-1.2V8.2c0-0.9-0.1-1.7-0.2-2.5c-0.1-0.8-0.2-1.3-0.3-1.6
			C97.2,1.4,97.9,0,99.6,0c0.8,0,1.5,0.3,2,0.8s0.8,1.2,1,2c0,0.3-0.1,0.7-0.3,1.2l-0.1,1.3l-0.1,3.7c0.6,0,2.1,0.1,4.4,0.3l1.9,0.1
			l4,0.1h0.7h0.7c1.6,0,2.4,0.6,2.6,1.8c0.3,1.5,0.4,3.7,0.4,6.5c0,1.5-0.1,2.6-0.2,3.1c-0.5,2.4-1.7,5.5-3.4,9.1l-1.3,2.9
			c-4,8.8-6.2,14.6-6.6,17.4c-0.1,0.7-0.2,1.1-0.2,1.3c0,0.5,0.2,0.9,0.6,1.1c0.4,0.2,1.2,0.4,2.4,0.4c0.8,0,1.4,0,1.8-0.1
			c0.6,0,1,0.1,1.3,0.5c0.3,0.4,0.4,0.9,0.3,1.5c-0.1,0.7-0.6,1.1-1.5,1.3C109.2,56.8,108.3,56.8,107.2,56.8z"/>
	</g>
	<g>
		<path class="st1" d="M127.1,20.6c-2.7,0.4-2.1,5.4,1.8,11.7c4.4,7.1,10.8,12.5,13.7,11.4c2.8-1,0.9-7.6-3.7-13.9
			C134.8,24.1,129.7,20.2,127.1,20.6z"/>
		<path class="st2" d="M141.1,15.1c-1.8,0-2.9,7.2-2.4,16.2c0.4,8.9,2.3,16.1,4,16.1c1.8,0,2.9-7.2,2.4-16.2
			C144.7,22.3,142.9,15.1,141.1,15.1z"/>
		<path class="st3" d="M162.7,32.2c-4.7,0-8.5,6-8.5,13.3c0,7.4,3.1,10.6,7.9,10.6c4.7,0,9.2-3.2,9.2-10.6
			C171.3,38.2,167.5,32.2,162.7,32.2z"/>
		<g>
			<defs>
				<path id="SVGID_1_" d="M162.7,32.2c-4.7,0-8.5,6-8.5,13.3c0,7.4,3.1,10.6,7.9,10.6c4.7,0,9.2-3.2,9.2-10.6
					C171.3,38.2,167.5,32.2,162.7,32.2z"/>
			</defs>
			<clipPath id="SVGID_2_">
				<use xlink:href="#SVGID_1_"  style="overflow:visible;"/>
			</clipPath>
			<path class="st4" d="M159,30.8c0,0,9.8,0.3,15,7.5C179.3,45.6,165.8,33.3,159,30.8z"/>
			<path class="st4" d="M159,51.3c0,0,9.8,0.3,15,7.5C179.3,66.1,165.8,53.8,159,51.3z"/>
			<path class="st4" d="M159,44.5c0,0,9.8,0.3,15,7.5C179.3,59.3,165.8,47,159,44.5z"/>
			<path class="st4" d="M159,37.7c0,0,9.8,0.3,15,7.5C179.3,52.5,165.8,40.1,159,37.7z"/>
		</g>
		<path class="st5" d="M141.8,15.1c0,0-2.3,22.8-4.5,23.5c-5.5,1-10.3-18.6-12-18c-1.7,0.5-7.8,35.4,4.4,37.6h29.2
			C158.9,58.2,177.1,21.9,141.8,15.1z"/>
		<path class="st2" d="M151.1,26c2.8,0,5.1,2.3,5.1,5.1c0,2.8-2.3,5.1-5.1,5.1c-2.8,0-5.1-2.3-5.1-5.1C146,28.3,148.3,26,151.1,26z"
			/>
		<g>
			<defs>
				<path id="SVGID_3_" d="M151.1,26c2.8,0,5.1,2.3,5.1,5.1c0,2.8-2.3,5.1-5.1,5.1c-2.8,0-5.1-2.3-5.1-5.1
					C146,28.3,148.3,26,151.1,26z"/>
			</defs>
			<clipPath id="SVGID_4_">
				<use xlink:href="#SVGID_3_"  style="overflow:visible;"/>
			</clipPath>
			<path class="st6" d="M149.1,26c2.1,0,3.8,2,3.8,4.4c0,2.5-1.7,4.4-3.8,4.4c-2.1,0-3.8-2-3.8-4.4C145.3,28,147,26,149.1,26z"/>
		</g>
		<path class="st7" d="M180,52.4c0,0-20.5,5.8-36.5,2.3c-16-3.4-37.9,2.4-37.9,2.4s26.3-2.2,37.8,1.7C154.9,62.8,180,52.4,180,52.4z
			"/>
		<path class="st8" d="M104.5,51.1c0,0,20.4,6.1,36.5,3c16-3.2,37.8,3.1,37.8,3.1s-26.2-2.7-37.8,1
			C129.4,61.9,104.5,51.1,104.5,51.1z"/>
	</g>
</g>
</svg>
